#!OML:ASF G:\JayActor3\Patient Classification 1\Patient 1\Session 6\male.ASF
:FULLY-SPECIFIED
:DEGREES
2632
root 11.967 14.7677 -4.31087 49.084 -79.5504 -38.8928
lowerback 35.8832 0.572157 2.75512
upperback 16.9265 -0.529299 0.557526
thorax 0.619391 -0.94292 -0.708297
lowerneck -10.0014 1.22488 5.8425
upperneck -5.87817 0.855635 2.0188
head -0.161764 0.219116 -0.312776
rclavicle -4.77083e-015 3.45885e-014
rhumerus 1.28501 23.3252 -79.6784
rradius 70.1892
rwrist -7.44391
rhand -26.16 -9.72895
rfingers 7.12502
rthumb 0.391196 -39.7083
lclavicle -4.77083e-015 3.45885e-014
lhumerus 12.7302 -27.6503 58.5506
lradius 78.9819
lwrist 50.8206
lhand -22.4921 12.2687
lfingers 7.12502
lthumb 3.93353 42.2121
rfemur -57.5252 -5.26076 26.0205
rtibia 66.939
rfoot -18.6395 -14.7428
rtoes -5.35127
lfemur -55.7019 13.1174 -20.0889
ltibia 63.6149
lfoot -20.6014 1.15241
ltoes 8.60313
2633
root 11.9753 14.7754 -4.30784 48.8975 -79.5569 -38.642
lowerback 35.8469 0.569498 2.7405
upperback 16.9072 -0.532629 0.520209
thorax 0.609303 -0.940803 -0.738746
lowerneck -10.0285 1.21209 5.84367
upperneck -5.84869 0.835865 2.03247
head -0.148673 0.210428 -0.309289
rclavicle -7.95139e-015 -2.34566e-014
rhumerus 1.27787 23.3291 -79.6819
rradius 70.2563
rwrist -7.48881
rhand -26.2204 -9.72035
rfingers 7.12502
rthumb 0.332881 -39.6998
lclavicle -7.95139e-015 -2.34566e-014
lhumerus 12.8057 -27.7071 58.4451
lradius 79.1457
lwrist 50.9313
lhand -22.4545 12.3778
lfingers 7.12502
lthumb 3.96993 42.3205
rfemur -57.7257 -5.35749 25.9874
rtibia 67.0568
rfoot -18.4191 -14.8403
rtoes -6.02008
lfemur -55.6879 12.9815 -20.1253
ltibia 63.4474
lfoot -20.5497 1.23667
ltoes 8.621
2634
root 11.9837 14.7829 -4.30523 48.6389 -79.5524 -38.316
lowerback 35.8131 0.556029 2.74406
upperback 16.8846 -0.542679 0.484491
thorax 0.594978 -0.940675 -0.774895
lowerneck -10.0592 1.2007 5.8361
upperneck -5.81271 0.818595 2.04913
head -0.132968 0.203494 -0.303373
rclavicle 1.35174e-014 4.77083e-015
rhumerus 1.26523 23.3357 -79.6814
rradius 70.323
rwrist -7.52383
rhand -26.2725 -9.70117
rfingers 7.12502
rthumb 0.282551 -39.6807
lclavicle 1.35174e-014 4.77083e-015
lhumerus 12.875 -27.7702 58.3464
lradius 79.3058
lwrist 51.028
lhand -22.4101 12.4707
lfingers 7.12502
lthumb 4.01274 42.4127
rfemur -57.9121 -5.46801 25.9559
rtibia 67.158
rfoot -18.2745 -14.9354
rtoes -6.72104
lfemur -55.6796 12.8392 -20.1667
ltibia 63.2793
lfoot -20.4962 1.31145
ltoes 8.6404
2635
root 11.9919 14.79 -4.30318 48.286 -79.5409 -37.8977
lowerback 35.7832 0.534845 2.75753
upperback 16.8605 -0.558463 0.450549
thorax 0.577597 -0.942689 -0.812555
lowerneck -10.0782 1.19082 5.83178
upperneck -5.78224 0.80416 2.06248
head -0.120783 0.197715 -0.298958
rclavicle -7.95139e-015 -3.69739e-014
rhumerus 1.24935 23.3434 -79.6757
rradius 70.3854
rwrist -7.54652
rhand -26.3053 -9.68077
rfingers 7.12502
rthumb 0.25092 -39.6604
lclavicle -7.95139e-015 -3.69739e-014
lhumerus 12.9423 -27.839 58.2531
lradius 79.4556
lwrist 51.1128
lhand -22.363 12.5256
lfingers 7.12502
lthumb 4.05826 42.4667
rfemur -58.0739 -5.59135 25.9213
rtibia 67.2407
rfoot -18.2207 -15.0255
rtoes -7.39302
lfemur -55.6722 12.6969 -20.2196
ltibia 63.1141
lfoot -20.442 1.37058
ltoes 8.66148
2636
root 11.9998 14.7964 -4.30188 47.842 -79.524 -37.3919
lowerback 35.7555 0.509633 2.78051
upperback 16.8354 -0.57576 0.417045
thorax 0.558535 -0.944703 -0.854223
lowerneck -10.0744 1.18049 5.84337
upperneck -5.76577 0.789631 2.06929
head -0.116504 0.190988 -0.299217
rclavicle -7.95139e-015 -2.90226e-014
rhumerus 1.22657 23.3447 -79.6688
rradius 70.4441
rwrist -7.56941
rhand -26.3268 -9.65282
rfingers 7.12502
rthumb 0.230153 -39.6324
lclavicle -7.95139e-015 -2.90226e-014
lhumerus 13.0124 -27.9224 58.1598
lradius 79.5941
lwrist 51.1842
lhand -22.3188 12.5467
lfingers 7.12502
lthumb 4.10093 42.487
rfemur -58.2058 -5.72398 25.8852
rtibia 67.3054
rfoot -18.2566 -15.1221
rtoes -7.96914
lfemur -55.6667 12.5624 -20.2852
ltibia 62.9567
lfoot -20.3883 1.40629
ltoes 8.69429
2637
root 12.0074 14.802 -4.30133 47.3301 -79.5022 -36.8215
lowerback 35.7288 0.482803 2.81238
upperback 16.8094 -0.591839 0.38646
thorax 0.538384 -0.945594 -0.897826
lowerneck -10.0512 1.16851 5.86417
upperneck -5.76172 0.773822 2.07413
head -0.119196 0.182928 -0.301642
rclavicle -1.43125e-014 1.82882e-014
rhumerus 1.19843 23.3385 -79.6563
rradius 70.5002
rwrist -7.58896
rhand -26.3298 -9.62365
rfingers 7.12502
rthumb 0.227228 -39.6033
lclavicle -1.43125e-014 1.82882e-014
lhumerus 13.0894 -28.0215 58.0667
lradius 79.7214
lwrist 51.239
lhand -22.2858 12.5425
lfingers 7.12502
lthumb 4.13277 42.4822
rfemur -58.3085 -5.86304 25.8527
rtibia 67.3548
rfoot -18.3742 -15.2547
rtoes -8.39419
lfemur -55.6677 12.4428 -20.3628
ltibia 62.812
lfoot -20.3339 1.41324
ltoes 8.74642
2638
root 12.0146 14.8063 -4.30164 46.7916 -79.4823 -36.227
lowerback 35.6971 0.459762 2.84212
upperback 16.7861 -0.604095 0.363179
thorax 0.522953 -0.945194 -0.93398
lowerneck -10.0157 1.15551 5.88392
upperneck -5.76801 0.758049 2.07793
head -0.127096 0.174494 -0.304205
rclavicle 1.59028e-014 9.93923e-015
rhumerus 1.17064 23.3317 -79.634
rradius 70.5559
rwrist -7.60257
rhand -26.3205 -9.59162
rfingers 7.12502
rthumb 0.236152 -39.5712
lclavicle 1.59028e-014 9.93923e-015
lhumerus 13.1716 -28.1262 57.9805
lradius 79.8432
lwrist 51.2708
lhand -22.2794 12.5368
lfingers 7.12502
lthumb 4.13898 42.4764
rfemur -58.3826 -5.99736 25.8262
rtibia 67.392
rfoot -18.5696 -15.4512
rtoes -8.61193
lfemur -55.6798 12.3483 -20.4516
ltibia 62.6853
lfoot -20.2782 1.39
ltoes 8.81972
2639
root 12.0216 14.8095 -4.30272 46.2326 -79.4628 -35.6156
lowerback 35.6583 0.439621 2.86671
upperback 16.7671 -0.614731 0.350618
thorax 0.51481 -0.945043 -0.956943
lowerneck -9.97407 1.14266 5.88941
upperneck -5.78016 0.744717 2.08666
head -0.137859 0.167368 -0.302807
rclavicle 2.94201e-014 6.44062e-014
rhumerus 1.14747 23.3339 -79.5949
rradius 70.6165
rwrist -7.6199
rhand -26.296 -9.56306
rfingers 7.12502
rthumb 0.259901 -39.5426
lclavicle 2.94201e-014 6.44062e-014
lhumerus 13.2561 -28.2303 57.9049
lradius 79.9667
lwrist 51.2844
lhand -22.3124 12.5378
lfingers 7.12502
lthumb 4.10712 42.4779
rfemur -58.4265 -6.12767 25.8087
rtibia 67.4192
rfoot -18.8322 -15.7328
rtoes -8.63383
lfemur -55.7032 12.2796 -20.5503
ltibia 62.5785
lfoot -20.2201 1.34089
ltoes 8.88591
2640
root 12.0281 14.8114 -4.30475 45.7042 -79.4477 -35.0365
lowerback 35.6093 0.426967 2.88656
upperback 16.7511 -0.617983 0.347599
thorax 0.513561 -0.942161 -0.969908
lowerneck -9.92885 1.12867 5.8849
upperneck -5.79458 0.731349 2.09998
head -0.149992 0.160358 -0.29833
rclavicle 2.38542e-015 -2.0276e-014
rhumerus 1.12134 23.3375 -79.547
rradius 70.6872
rwrist -7.63741
rhand -26.2587 -9.54389
rfingers 7.12502
rthumb 0.295865 -39.5234
lclavicle 2.38542e-015 -2.0276e-014
lhumerus 13.3417 -28.3404 57.8374
lradius 80.103
lwrist 51.2739
lhand -22.394 12.5787
lfingers 7.12502
lthumb 4.02828 42.5203
rfemur -58.4421 -6.2416 25.8036
rtibia 67.4349
rfoot -19.1548 -16.0994
rtoes -8.46905
lfemur -55.7427 12.2426 -20.6529
ltibia 62.4949
lfoot -20.1611 1.2668
ltoes 8.95801
